HIERARCHY
ROOT Torso
{
	OFFSET 0.000000 0.000000 0.000000
	CHANNELS 6 Xposition Yposition Zposition Zrotation Yrotation Xrotation 
	JOINT LHip
	{
		OFFSET 0.000000 0.000000 0.000000
		CHANNELS 3 Zrotation Yrotation Xrotation
		JOINT LThigh
		{
			OFFSET 0.055000 -0.055000 -0.010000
			CHANNELS 3 Zrotation Yrotation Xrotation
			JOINT LLeg
			{
				OFFSET 0.000000 -0.120000 0.015000
				CHANNELS 3 Zrotation Yrotation Xrotation
				JOINT LFoot
				{
					OFFSET 0.000000 -0.100000 -0.010000
					CHANNELS 3 Zrotation Yrotation Xrotation
					JOINT LToes
					{
						OFFSET 0.000000 0.000000 0.090000
						CHANNELS 3 Zrotation Yrotation Xrotation
						End Site
						{
							OFFSET 0.000000 0.000000 0.000000
						}
					}
				}
			}
		}
	}
	JOINT RHip
	{
		OFFSET 0.000000 0.000000 0.000000
		CHANNELS 3 Zrotation Yrotation Xrotation
		JOINT RThigh
		{
			OFFSET -0.055000 -0.055000 -0.010000
			CHANNELS 3 Zrotation Yrotation Xrotation
			JOINT RLeg
			{
				OFFSET 0.000000 -0.120000 0.015000
				CHANNELS 3 Zrotation Yrotation Xrotation
				JOINT RFoot
				{
					OFFSET 0.000000 -0.100000 -0.010000
					CHANNELS 3 Zrotation Yrotation Xrotation
					JOINT RToes
					{
						OFFSET 0.000000 0.000000 0.090000
						CHANNELS 3 Zrotation Yrotation Xrotation
						End Site
						{
							OFFSET 0.000000 0.000000 0.000000
						}
					}
				}
			}
		}
	}
	JOINT Neck
	{
		OFFSET 0.000000 0.135000 0.000000
		CHANNELS 3 Zrotation Yrotation Xrotation
		JOINT Head
		{
			OFFSET 0.000000 0.075000 0.000000
			CHANNELS 3 Zrotation Yrotation Xrotation
			End Site
			{
				OFFSET 0.000000 0.000000 0.000000
			}
		}
	}
	JOINT LUpperarm
	{
		OFFSET 0.098000 0.150000 0.000000
		CHANNELS 3 Zrotation Yrotation Xrotation
		JOINT LLowerarm
		{
			OFFSET 0.000000 0.009000 0.090000
			CHANNELS 3 Zrotation Yrotation Xrotation
			JOINT LHand
			{
				OFFSET 0.000000 0.000000 0.105000
				CHANNELS 3 Zrotation Yrotation Xrotation
				End Site
				{
					OFFSET 0.000000 0.000000 0.000000
				}
			}
		}
	}
	JOINT RUpperarm
	{
		OFFSET -0.098000 0.150000 0.000000
		CHANNELS 3 Zrotation Yrotation Xrotation
		JOINT RLowerarm
		{
			OFFSET 0.000000 0.009000 0.090000
			CHANNELS 3 Zrotation Yrotation Xrotation
			JOINT RHand
			{
				OFFSET 0.000000 0.000000 0.105000
				CHANNELS 3 Zrotation Yrotation Xrotation
				End Site
				{
					OFFSET 0.000000 0.000000 0.000000
				}
			}
		}
	}
}
MOTION
Frames: 6
Frame Time: 0.040000
0.383967 0.354887 -0.013020 -19.833285 -86.482335 11.410418 -15.745049 -2.783507 -0.509003 13.004504 -0.466287 8.106600 10.222859 -1.266289 8.912484 0.000000 0.000000 0.000000 0.000000 0.000000 0.000000 17.028135 1.060090 1.916819 -10.722337 0.832544 8.079875 -3.618084 0.548477 5.948906 0.000000 0.000000 0.000000 0.000000 0.000000 0.000000 4.963744 -0.240401 23.207218 0.000000 0.000000 0.000000 127.124692 85.314778 -126.295784 -0.020346 -3.870746 -3.740022 0.000000 0.000000 0.000000 -125.251492 -70.101003 -125.105898 3.071548 11.722917 -2.560243 0.000000 0.000000 0.000000 
0.384011 0.354965 -0.013050 -19.786157 -86.527560 11.400538 -15.794441 -2.820210 -0.565047 13.031984 -0.460494 8.102732 10.265622 -1.272213 8.965246 0.000000 0.000000 0.000000 0.000000 0.000000 0.000000 16.996960 1.017716 1.941216 -10.705930 0.831081 8.054638 -3.645099 0.546232 5.831821 0.000000 0.000000 0.000000 0.000000 0.000000 0.000000 4.950053 -0.236469 23.099727 0.000000 0.000000 0.000000 127.118978 85.381675 -126.285319 -0.056375 -3.943523 -3.724279 0.000000 0.000000 0.000000 -125.249581 -70.166960 -125.093126 3.069509 11.693533 -2.573314 0.000000 0.000000 0.000000 
0.384050 0.354977 -0.013050 -19.697824 -86.569040 11.338547 -15.806767 -2.822924 -0.575416 13.034438 -0.460704 8.094952 10.258716 -1.270438 8.942841 0.000000 0.000000 0.000000 0.000000 0.000000 0.000000 16.983195 1.044868 1.905297 -10.706056 0.831071 8.040213 -3.661945 0.549928 5.859002 0.000000 0.000000 0.000000 0.000000 0.000000 0.000000 4.904901 -0.228633 23.087082 0.000000 0.000000 0.000000 127.097952 85.476345 -126.261825 -0.148115 -4.141437 -3.665344 0.000000 0.000000 0.000000 -125.257731 -70.194065 -125.093246 3.069021 11.688633 -2.585620 0.000000 0.000000 0.000000 
0.383995 0.354931 -0.013016 -19.769740 -86.518294 11.341553 -15.760903 -2.794845 -0.517838 12.997489 -0.465417 8.111399 10.250153 -1.270754 8.956983 0.000000 0.000000 0.000000 0.000000 0.000000 0.000000 17.018830 1.011083 1.957748 -10.741182 0.834796 8.076555 -3.641946 0.546668 5.844781 0.000000 0.000000 0.000000 0.000000 0.000000 0.000000 4.987707 -0.243874 23.173264 0.000000 0.000000 0.000000 127.099761 85.275418 -126.279809 -0.072556 -4.008142 -3.708948 0.000000 0.000000 0.000000 -125.258492 -70.140370 -125.103942 3.062239 11.699769 -2.596135 0.000000 0.000000 0.000000 
0.383993 0.354929 -0.013002 -19.781199 -86.495631 11.333749 -15.743284 -2.778853 -0.495113 12.992901 -0.468002 8.114282 10.237447 -1.268692 8.932780 0.000000 0.000000 0.000000 0.000000 0.000000 0.000000 17.027184 1.020472 1.959088 -10.742711 0.836616 8.087746 -3.631178 0.547197 5.881728 0.000000 0.000000 0.000000 0.000000 0.000000 0.000000 5.030690 -0.252171 23.197636 0.000000 0.000000 0.000000 127.094184 85.197240 -126.282905 -0.074298 -4.032972 -3.704203 0.000000 0.000000 0.000000 -125.260253 -70.140942 -125.105047 3.056412 11.694966 -2.618712 0.000000 0.000000 0.000000 
0.383993 0.354924 -0.012988 -19.801876 -86.463544 11.332794 -15.718842 -2.761155 -0.470257 12.985182 -0.470986 8.115089 10.221077 -1.266084 8.901644 0.000000 0.000000 0.000000 0.000000 0.000000 0.000000 17.040846 1.034265 1.956349 -10.745575 0.838111 8.100681 -3.616388 0.547713 5.929615 0.000000 0.000000 0.000000 0.000000 0.000000 0.000000 5.081335 -0.262214 23.222689 0.000000 0.000000 0.000000 127.090856 85.110255 -126.288891 -0.074751 -4.057680 -3.697794 0.000000 0.000000 0.000000 -125.260928 -70.142623 -125.105133 3.050104 11.689873 -2.645261 0.000000 0.000000 0.000000 
